<mxfile host="app.diagrams.net" modified="2023-05-25T05:02:08.583Z" agent="Mozilla/5.0 (Macintosh; Intel Mac OS X 10_15_7) AppleWebKit/537.36 (KHTML, like Gecko) Chrome/113.0.0.0 Safari/537.36" version="21.3.3" etag="oM4tMytyiYFkuFZHOOrc" type="github">
  <diagram name="第 1 页" id="LjKs6ZEnh1wB0zmxl6P6">
    <mxGraphModel>
      <root>
        <mxCell id="0" />
        <mxCell id="1" parent="0" />
      </root>
    </mxGraphModel>
  </diagram>
</mxfile>
